<svg xmlns="http://www.w3.org/2000/svg" viewBox="0 0 576 576" fill="#3d2462">
    <defs/>
    <path d="M45 72a27 27 0 100 54 27 27 0 000-54"/>
    <path d="M144 144V54l-72 90"/>
    <path d="M72 0v72L0 0"/>
    <path d="M252 18a18 18 0 100 36 18 18 0 000-36"/>
    <path d="M189 72a27 27 0 100 54 27 27 0 000-54"/>
    <path d="M288 144V54l-72 90"/>
    <path d="M216 0v72L144 0"/>
    <path d="M108 18a18 18 0 100 36 18 18 0 000-36"/>
    <path d="M396 18a18 18 0 100 36 18 18 0 000-36"/>
    <path d="M540 18a18 18 0 100 36 18 18 0 000-36"/>
    <path d="M333 72a27 27 0 100 54 27 27 0 000-54"/>
    <path d="M432 144V54l-72 90"/>
    <path d="M360 0v72L288 0"/>
    <path d="M477 72a27 27 0 100 54 27 27 0 000-54"/>
    <path d="M576 144V54l-72 90"/>
    <path d="M504 0v72L432 0"/>
    <path d="M108 162a18 18 0 100 36 18 18 0 000-36"/>
    <path d="M45 216a27 27 0 100 54 27 27 0 000-54"/>
    <path d="M144 288v-90l-72 90"/>
    <path d="M72 144v72L0 144"/>
    <path d="M252 162a18 18 0 100 36 18 18 0 000-36"/>
    <path fill="#dc323c" d="M189 216a27 27 0 100 54 27 27 0 000-54"/>
    <path d="M288 288v-90l-72 90"/>
    <path d="M216 144v72l-72-72"/>
    <path d="M396 162a18 18 0 100 36 18 18 0 000-36"/>
    <path d="M333 216a27 27 0 100 54 27 27 0 000-54"/>
    <path d="M432 288v-90l-72 90"/>
    <path d="M360 144v72l-72-72"/>
    <path d="M540 162a18 18 0 100 36 18 18 0 000-36"/>
    <path d="M477 216a27 27 0 100 54 27 27 0 000-54"/>
    <path d="M576 288v-90l-72 90"/>
    <path d="M504 144v72l-72-72"/>
    <path d="M108 306a18 18 0 100 36 18 18 0 000-36"/>
    <path d="M45 360a27 27 0 100 54 27 27 0 000-54"/>
    <path d="M144 432v-90l-72 90"/>
    <path d="M72 288v72L0 288"/>
    <path d="M252 306a18 18 0 100 36 18 18 0 000-36"/>
    <path d="M189 360a27 27 0 100 54 27 27 0 000-54"/>
    <path d="M288 432v-90l-72 90"/>
    <path d="M216 288v72l-72-72"/>
    <path d="M396 306a18 18 0 100 36 18 18 0 000-36"/>
    <path d="M333 360a27 27 0 100 54 27 27 0 000-54"/>
    <path d="M432 432v-90l-72 90"/>
    <path d="M360 288v72l-72-72"/>
    <path d="M540 306a18 18 0 100 36 18 18 0 000-36"/>
    <path d="M477 360a27 27 0 100 54 27 27 0 000-54"/>
    <path d="M576 432v-90l-72 90"/>
    <path d="M504 288v72l-72-72"/>
    <path d="M45 504a27 27 0 100 54 27 27 0 000-54"/>
    <path d="M144 576v-90l-72 90"/>
    <path d="M72 432v72L0 432"/>
    <path d="M252 450a18 18 0 100 36 18 18 0 000-36"/>
    <path d="M108 450a18 18 0 100 36 18 18 0 000-36"/>
    <path d="M189 504a27 27 0 100 54 27 27 0 000-54"/>
    <path d="M288 576v-90l-72 90"/>
    <path d="M216 432v72l-72-72"/>
    <path d="M396 450a18 18 0 100 36 18 18 0 000-36"/>
    <path d="M333 504a27 27 0 100 54 27 27 0 000-54"/>
    <path d="M432 576v-90l-72 90"/>
    <path d="M360 432v72l-72-72"/>
    <path d="M540 450a18 18 0 100 36 18 18 0 000-36"/>
    <path d="M504 432v72l-72-72"/>
    <path d="M477 504a27 27 0 100 54 27 27 0 000-54"/>
    <path d="M576 576v-90l-72 90"/>
</svg>
