<svg xmlns="http://www.w3.org/2000/svg" viewBox="0 0 576 576" fill="#82d296">
    <defs/>
    <path d="M216 0h-72l72 72"/>
    <path d="M216 72v72h72"/>
    <path d="M144 72v72l72-72"/>
    <path d="M261 72a27 27 0 100-54 27 27 0 000 54"/>
    <path d="M360 0h-72l72 72"/>
    <path d="M72 0H0l72 72"/>
    <path d="M72 72v72h72"/>
    <path d="M0 72v72l72-72"/>
    <path d="M117 72a27 27 0 100-54 27 27 0 000 54"/>
    <path d="M360 72v72h72"/>
    <path d="M288 72v72l72-72"/>
    <path d="M405 72a27 27 0 100-54 27 27 0 000 54"/>
    <path d="M549 72a27 27 0 100-54 27 27 0 000 54"/>
    <path d="M504 0h-72l72 72"/>
    <path d="M504 72v72h72"/>
    <path d="M432 72v72l72-72"/>
    <path d="M72 144H0l72 72"/>
    <path d="M72 216v72h72"/>
    <path d="M0 216v72l72-72"/>
    <path fill="#f09b1e" d="M117 216a27 27 0 100-54 27 27 0 000 54"/>
    <path d="M216 144h-72l72 72"/>
    <path d="M216 216v72h72"/>
    <path d="M144 216v72l72-72"/>
    <path d="M261 216a27 27 0 100-54 27 27 0 000 54"/>
    <path d="M360 144h-72l72 72"/>
    <path d="M360 216v72h72"/>
    <path d="M288 216v72l72-72"/>
    <path d="M405 216a27 27 0 100-54 27 27 0 000 54"/>
    <path d="M504 144h-72l72 72"/>
    <path d="M504 216v72h72"/>
    <path d="M432 216v72l72-72"/>
    <path d="M549 216a27 27 0 100-54 27 27 0 000 54"/>
    <path d="M72 288H0l72 72"/>
    <path d="M72 360v72h72"/>
    <path d="M0 360v72l72-72"/>
    <path d="M117 360a27 27 0 100-54 27 27 0 000 54"/>
    <path d="M216 288h-72l72 72"/>
    <path d="M216 360v72h72"/>
    <path d="M144 360v72l72-72"/>
    <path d="M261 360a27 27 0 100-54 27 27 0 000 54"/>
    <path d="M360 288h-72l72 72"/>
    <path d="M360 360v72h72"/>
    <path d="M288 360v72l72-72"/>
    <path d="M405 360a27 27 0 100-54 27 27 0 000 54"/>
    <path d="M504 288h-72l72 72"/>
    <path d="M504 360v72h72"/>
    <path d="M432 360v72l72-72"/>
    <path d="M549 360a27 27 0 100-54 27 27 0 000 54"/>
    <path d="M72 432H0l72 72"/>
    <path d="M72 504v72h72"/>
    <path d="M0 504v72l72-72"/>
    <path d="M216 432h-72l72 72"/>
    <path d="M216 504v72h72"/>
    <path d="M144 504v72l72-72"/>
    <path d="M261 504a27 27 0 100-54 27 27 0 000 54"/>
    <path d="M117 504a27 27 0 100-54 27 27 0 000 54"/>
    <path d="M360 432h-72l72 72"/>
    <path d="M360 504v72h72"/>
    <path d="M288 504v72l72-72"/>
    <path d="M405 504a27 27 0 100-54 27 27 0 000 54"/>
    <path d="M504 432h-72l72 72"/>
    <path d="M549 504a27 27 0 100-54 27 27 0 000 54"/>
    <path d="M504 504v72h72"/>
    <path d="M432 504v72l72-72"/>
</svg>
