<svg xmlns="http://www.w3.org/2000/svg" viewBox="0 0 576 576" fill="#3d2462">
    <defs/>
    <path d="M0 0v72h72"/>
    <path d="M144 144V72H72"/>
    <path d="M63 113a23 23 0 10-45 0 23 23 0 0045 0"/>
    <path d="M126 32a23 23 0 10-45 0 23 23 0 0045 0"/>
    <path d="M144 0v72h72"/>
    <path d="M288 144V72h-72"/>
    <path d="M207 113a23 23 0 10-45 0 23 23 0 0045 0"/>
    <path d="M270 32a23 23 0 10-45 0 23 23 0 0045 0"/>
    <path d="M288 0v72h72"/>
    <path d="M432 144V72h-72"/>
    <path d="M351 113a23 23 0 10-45 0 23 23 0 0045 0"/>
    <path d="M414 32a23 23 0 10-45 0 23 23 0 0045 0"/>
    <path d="M432 0v72h72"/>
    <path d="M576 144V72h-72"/>
    <path d="M495 113a23 23 0 10-45 0 23 23 0 0045 0"/>
    <path d="M558 32a23 23 0 10-45 0 23 23 0 0045 0"/>
    <path d="M0 144v72h72"/>
    <path d="M144 288v-72H72"/>
    <path d="M63 257a23 23 0 10-45 0 23 23 0 0045 0"/>
    <path d="M126 176a23 23 0 10-45 0 23 23 0 0045 0"/>
    <path d="M144 144v72h72"/>
    <path d="M288 288v-72h-72"/>
    <path fill="#00b6b4" d="M207 257a23 23 0 10-45 0 23 23 0 0045 0"/>
    <path d="M270 176a23 23 0 10-45 0 23 23 0 0045 0"/>
    <path d="M288 144v72h72"/>
    <path d="M432 288v-72h-72"/>
    <path d="M351 257a23 23 0 10-45 0 23 23 0 0045 0"/>
    <path d="M414 176a23 23 0 10-45 0 23 23 0 0045 0"/>
    <path d="M432 144v72h72"/>
    <path d="M576 288v-72h-72"/>
    <path d="M495 257a23 23 0 10-45 0 23 23 0 0045 0"/>
    <path d="M558 176a23 23 0 10-45 0 23 23 0 0045 0"/>
    <path d="M0 288v72h72"/>
    <path d="M144 432v-72H72"/>
    <path d="M63 401a23 23 0 10-45 0 23 23 0 0045 0"/>
    <path d="M126 320a23 23 0 10-45 0 23 23 0 0045 0"/>
    <path d="M144 288v72h72"/>
    <path d="M288 432v-72h-72"/>
    <path d="M207 401a23 23 0 10-45 0 23 23 0 0045 0"/>
    <path d="M270 320a23 23 0 10-45 0 23 23 0 0045 0"/>
    <path d="M288 288v72h72"/>
    <path d="M432 432v-72h-72"/>
    <path d="M351 401a23 23 0 10-45 0 23 23 0 0045 0"/>
    <path d="M414 320a23 23 0 10-45 0 23 23 0 0045 0"/>
    <path d="M432 288v72h72"/>
    <path d="M576 432v-72h-72"/>
    <path d="M495 401a23 23 0 10-45 0 23 23 0 0045 0"/>
    <path d="M558 320a23 23 0 10-45 0 23 23 0 0045 0"/>
    <path d="M0 432v72h72"/>
    <path d="M144 576v-72H72"/>
    <path d="M63 545a23 23 0 10-45 0 23 23 0 0045 0"/>
    <path d="M126 464a23 23 0 10-45 0 23 23 0 0045 0"/>
    <path d="M144 432v72h72"/>
    <path d="M288 576v-72h-72"/>
    <path d="M207 545a23 23 0 10-45 0 23 23 0 0045 0"/>
    <path d="M270 464a23 23 0 10-45 0 23 23 0 0045 0"/>
    <path d="M288 432v72h72"/>
    <path d="M432 576v-72h-72"/>
    <path d="M351 545a23 23 0 10-45 0 23 23 0 0045 0"/>
    <path d="M414 464a23 23 0 10-45 0 23 23 0 0045 0"/>
    <path d="M432 432v72h72"/>
    <path d="M576 576v-72h-72"/>
    <path d="M495 545a23 23 0 10-45 0 23 23 0 0045 0"/>
    <path d="M558 464a23 23 0 10-45 0 23 23 0 0045 0"/>
</svg>
