<svg xmlns="http://www.w3.org/2000/svg" viewBox="0 0 576 576" fill="#007d91">
    <defs/>
    <path d="M216 0h-72l36 36"/>
    <path d="M207 99a27 27 0 10-54 0 27 27 0 0054 0"/>
    <path d="M288 144h-72l36-36"/>
    <path d="M279 45a27 27 0 11-54 0 27 27 0 0154 0"/>
    <path d="M360 0h-72l36 36"/>
    <path d="M351 99a27 27 0 10-54 0 27 27 0 0054 0"/>
    <path d="M432 144h-72l36-36"/>
    <path d="M423 45a27 27 0 11-54 0 27 27 0 0154 0"/>
    <path d="M504 0h-72l36 36"/>
    <path d="M495 99a27 27 0 10-54 0 27 27 0 0054 0"/>
    <path d="M576 144h-72l36-36"/>
    <path d="M567 45a27 27 0 11-54 0 27 27 0 0154 0"/>
    <path d="M72 144H0l36 36"/>
    <path d="M63 243a27 27 0 10-54 0 27 27 0 0054 0"/>
    <path d="M144 288H72l36-36"/>
    <path fill="#82d296" d="M135 189a27 27 0 11-54 0 27 27 0 0154 0"/>
    <path d="M216 144h-72l36 36"/>
    <path d="M207 243a27 27 0 10-54 0 27 27 0 0054 0"/>
    <path d="M288 288h-72l36-36"/>
    <path d="M279 189a27 27 0 11-54 0 27 27 0 0154 0"/>
    <path d="M351 243a27 27 0 10-54 0 27 27 0 0054 0"/>
    <path d="M423 189a27 27 0 11-54 0 27 27 0 0154 0"/>
    <path d="M360 144h-72l36 36"/>
    <path d="M432 288h-72l36-36"/>
    <path d="M504 144h-72l36 36"/>
    <path d="M495 243a27 27 0 10-54 0 27 27 0 0054 0"/>
    <path d="M576 288h-72l36-36"/>
    <path d="M567 189a27 27 0 11-54 0 27 27 0 0154 0"/>
    <path d="M72 288H0l36 36"/>
    <path d="M63 387a27 27 0 10-54 0 27 27 0 0054 0"/>
    <path d="M144 432H72l36-36"/>
    <path d="M135 333a27 27 0 11-54 0 27 27 0 0154 0"/>
    <path d="M216 288h-72l36 36"/>
    <path d="M207 387a27 27 0 10-54 0 27 27 0 0054 0"/>
    <path d="M288 432h-72l36-36"/>
    <path d="M279 333a27 27 0 11-54 0 27 27 0 0154 0"/>
    <path d="M360 288h-72l36 36"/>
    <path d="M351 387a27 27 0 10-54 0 27 27 0 0054 0"/>
    <path d="M432 432h-72l36-36"/>
    <path d="M423 333a27 27 0 11-54 0 27 27 0 0154 0"/>
    <path d="M504 288h-72l36 36"/>
    <path d="M495 387a27 27 0 10-54 0 27 27 0 0054 0"/>
    <path d="M576 432h-72l36-36"/>
    <path d="M567 333a27 27 0 11-54 0 27 27 0 0154 0"/>
    <path d="M72 432H0l36 36"/>
    <path d="M63 531a27 27 0 10-54 0 27 27 0 0054 0"/>
    <path d="M144 576H72l36-36"/>
    <path d="M135 477a27 27 0 11-54 0 27 27 0 0154 0"/>
    <path d="M216 432h-72l36 36"/>
    <path d="M207 531a27 27 0 10-54 0 27 27 0 0054 0"/>
    <path d="M288 576h-72l36-36"/>
    <path d="M279 477a27 27 0 11-54 0 27 27 0 0154 0"/>
    <path d="M423 477a27 27 0 11-54 0 27 27 0 0154 0"/>
    <path d="M360 432h-72l36 36"/>
    <path d="M351 531a27 27 0 10-54 0 27 27 0 0054 0"/>
    <path d="M432 576h-72l36-36"/>
    <path d="M504 432h-72l36 36"/>
    <path d="M495 531a27 27 0 10-54 0 27 27 0 0054 0"/>
    <path d="M576 576h-72l36-36"/>
    <path d="M567 477a27 27 0 11-54 0 27 27 0 0154 0"/>
    <path d="M72 0H0l36 36"/>
    <path d="M144 144H72l36-36"/>
    <path d="M135 45a27 27 0 11-54 0 27 27 0 0154 0"/>
    <path d="M63 99a27 27 0 10-54 0 27 27 0 0054 0"/>
</svg>
